<?xml version="1.0" encoding="UTF-8"?>
<svg id="Layer_1" xmlns="http://www.w3.org/2000/svg" version="1.1" viewBox="0 0 32 32">
  <!-- Generator: Adobe Illustrator 30.1.0, SVG Export Plug-In . SVG Version: 2.1.1 Build 136)  -->
  <path d="M5.3,29.3H1.3V2.7h4v26.7ZM21.3,6.7h1.3v2.7h-1.3s0,1.3,0,1.3h-1.3s0,1.3,0,1.3h-1.3s0,1.3,0,1.3h12v5.3h-12s0,1.3,0,1.3h1.3v1.3s1.3,0,1.3,0v1.3s1.3,0,1.3,0v2.7h-1.3s0,1.3,0,1.3h-2.7v-1.3s-1.3,0-1.3,0v-1.3s-1.3,0-1.3,0v-1.3s-1.3,0-1.3,0v-1.3s-1.3,0-1.3,0v-1.3s-1.3,0-1.3,0v-1.3s-1.3,0-1.3,0v-1.3s-1.3,0-1.3,0v-2.7h1.3s0-1.3,0-1.3h1.3s0-1.3,0-1.3h1.3s0-1.3,0-1.3h1.3s0-1.3,0-1.3h1.3s0-1.3,0-1.3h1.3s0-1.3,0-1.3h1.3s0-1.3,0-1.3h2.7v1.3Z"/>
</svg>