<?xml version="1.0" standalone="no"?>
<!DOCTYPE svg PUBLIC "-//W3C//DTD SVG 20010904//EN"
 "http://www.w3.org/TR/2001/REC-SVG-20010904/DTD/svg10.dtd">
<svg version="1.0" xmlns="http://www.w3.org/2000/svg"
 width="1024.000000pt" height="1024.000000pt" viewBox="0 0 1024.000000 1024.000000"
 preserveAspectRatio="xMidYMid meet">
<metadata>
Created by potrace 1.11, written by Peter Selinger 2001-2013
</metadata>
<g transform="translate(0.000000,1024.000000) scale(0.100000,-0.100000)"
fill="#000000" stroke="none">
<path d="M4770 10230 c-1134 -88 -2148 -507 -3000 -1239 -152 -131 -450 -435
-580 -591 -623 -751 -1017 -1641 -1144 -2590 -34 -253 -41 -372 -41 -690 0
-329 7 -437 46 -720 150 -1088 664 -2114 1449 -2900 793 -793 1827 -1306 2930
-1454 253 -34 372 -41 690 -41 329 0 437 7 720 46 1087 150 2115 664 2900
1449 793 793 1306 1827 1454 2930 34 253 41 372 41 690 0 329 -7 437 -46 720
-134 965 -546 1872 -1198 2630 -131 152 -435 450 -591 580 -561 466 -1197 803
-1880 995 -314 89 -551 134 -895 171 -167 18 -691 26 -855 14z m705 -760 c818
-70 1585 -359 2233 -839 180 -134 285 -224 461 -396 246 -241 406 -433 586
-705 382 -575 600 -1163 696 -1870 26 -200 37 -660 20 -875 -109 -1347 -811
-2546 -1926 -3290 -207 -138 -343 -216 -540 -311 -423 -203 -848 -328 -1345
-395 -200 -26 -660 -37 -875 -20 -1347 109 -2546 811 -3290 1926 -138 207
-216 343 -311 540 -203 424 -327 847 -395 1345 -26 200 -37 660 -20 875 75
921 419 1763 1010 2470 101 121 352 377 476 484 583 508 1309 861 2060 1000
111 21 388 58 480 64 120 8 570 6 680 -3z"/>
<path d="M4894 8091 l-721 -27 -48 -24 c-27 -14 -61 -43 -78 -68 -63 -87 -79
-3 307 -1597 191 -787 349 -1436 352 -1444 3 -9 -1 -11 -13 -6 -58 22 -171 37
-278 37 -159 -1 -1012 -119 -1129 -157 -193 -63 -366 -189 -482 -351 -54 -76
-127 -228 -148 -309 -41 -161 -42 -257 -5 -517 32 -224 91 -370 213 -524 179
-227 496 -370 780 -351 103 7 940 123 1024 143 213 48 433 203 561 393 83 122
141 278 157 421 6 55 5 60 -12 59 -11 0 -111 -12 -223 -27 l-203 -27 -23 -62
c-55 -153 -181 -274 -330 -318 -89 -27 -984 -148 -1040 -141 -126 16 -255 82
-333 171 -74 85 -110 171 -132 325 -42 283 -15 407 115 548 65 71 127 112 210
141 84 29 991 154 1054 145 25 -3 80 -17 121 -30 l75 -24 293 39 c161 21 295
40 297 43 2 2 -129 543 -291 1202 -161 660 -292 1202 -289 1204 3 3 301 16
662 29 657 24 658 24 709 48 61 30 99 80 114 151 11 49 7 68 -80 410 -50 197
-98 375 -106 396 -20 46 -68 92 -116 112 -47 20 -64 20 -964 -13z"/>
<path d="M6399 6691 c-713 -27 -715 -27 -765 -52 -59 -29 -110 -98 -119 -163
-6 -36 35 -212 244 -1063 138 -560 251 -1021 251 -1024 0 -3 -33 3 -72 14 -57
15 -106 20 -218 20 -127 0 -203 -8 -600 -66 -260 -38 -483 -75 -520 -87 -363
-118 -616 -428 -665 -817 l-7 -53 29 5 c15 3 116 17 223 31 107 14 195 26 196
27 1 1 9 25 18 54 39 118 152 246 267 301 78 37 109 43 653 118 l418 58 78
-16 c165 -34 298 -135 370 -282 35 -70 43 -100 60 -221 11 -77 20 -165 20
-195 0 -205 -146 -411 -342 -480 -32 -11 -255 -47 -536 -86 l-482 -67 -78 15
c-43 9 -97 25 -121 36 l-42 21 -262 -45 c-144 -25 -264 -47 -266 -49 -9 -10
58 -92 130 -159 116 -108 258 -185 416 -227 60 -17 110 -22 218 -23 122 0 197
8 580 62 242 34 476 71 519 82 204 51 413 199 536 380 106 157 170 361 170
545 0 143 -34 298 -279 1291 -137 555 -247 1011 -245 1014 3 2 298 15 657 27
718 26 708 25 773 91 42 43 69 126 59 180 -4 21 -45 186 -92 367 -91 355 -103
385 -175 432 -39 26 -49 28 -162 30 -67 1 -443 -11 -837 -26z"/>
</g>
</svg>
